<svg id="图层_1" data-name="图层 1" xmlns="http://www.w3.org/2000/svg" viewBox="0 0 635.44 545.98"><title>icon</title><path d="M417.25,173.81c.12.51.38.9.51,1.42a200.53,200.53,0,0,1,81,6.69A203.37,203.37,0,0,1,575.68,224a202.67,202.67,0,0,0-140.79,27.18,167.59,167.59,0,0,1-2.57,43c-5.16,25.12-15.85,44.83-26.15,69.17a298.68,298.68,0,0,0-12.37,33.75c-4.12,13.65-4.63,41.09-3.47,60.8.38,4.89.77,9.27,1.28,12.88,4.51,33.23,13,55.13,37.1,75-43.67,2.19-68.53-16.23-85.27-31-3.35-3-6.83-6.44-10.43-10.31a260.52,260.52,0,0,1-28.08-38.77C296.68,452,290.5,438.76,287.41,429c-4.12-13.39-6.83-34.65-8.5-53.84-.52-5.66-.9-11.33-1.16-16.36a63.91,63.91,0,0,1-.39-6.95c-.9-15.72,0-31.56-2.19-47.53-17.9-131-130-225.8-258.38-225.54H14.6c-1,0-13.44-1-14.6-.83C17.32,59.73,58.26,24.14,78.1,15.51a120.16,120.16,0,0,1,13.65-5c14.56-4.63,31.3-7.73,47.15-9.4S181.53-.08,191.71.56c65.17,4.77,95.49,30,106.94,37C316.19,48.32,335.45,63.29,351,77.2A202.78,202.78,0,0,1,558.55,18.85,199.11,199.11,0,0,1,635.44,61C545.54,45.26,456.27,92,417.25,173.81Z" style="fill:#ee761c"/></svg>